<?xml version="1.0" standalone="no"?>
<!DOCTYPE svg PUBLIC "-//W3C//DTD SVG 20010904//EN"
 "http://www.w3.org/TR/2001/REC-SVG-20010904/DTD/svg10.dtd">
<svg version="1.0" xmlns="http://www.w3.org/2000/svg"
 width="260.000000pt" height="260.000000pt" viewBox="0 0 260.000000 260.000000"
 preserveAspectRatio="xMidYMid meet">
<metadata>
Created by potrace 1.11, written by Peter Selinger 2001-2013
</metadata>
<g transform="translate(0.000000,260.000000) scale(0.100000,-0.100000)"
fill="#000000" stroke="none">
<path d="M1680 2259 c-41 -4 -88 -10 -105 -13 -67 -13 -75 -15 -83 -20 -5 -3
-23 -8 -40 -11 -63 -11 -220 -105 -293 -176 -58 -57 -145 -174 -175 -237 -16
-31 -32 -59 -36 -63 -4 -3 -34 -4 -65 -2 -211 13 -307 9 -418 -18 -61 -15
-126 -34 -145 -42 -19 -9 -84 -34 -145 -57 -155 -58 -175 -68 -175 -85 0 -8 5
-15 10 -15 6 0 10 3 10 8 0 4 10 8 23 8 12 1 83 24 157 51 119 44 229 80 297
98 33 9 149 15 308 17 116 1 139 -1 136 -13 -16 -56 -35 -99 -45 -100 -6 -1
-69 -2 -141 -4 -82 -1 -156 -8 -200 -19 -38 -10 -75 -19 -82 -20 -7 -1 -16 -5
-19 -9 -4 -4 -14 -7 -22 -7 -8 0 -51 -15 -96 -34 -45 -18 -119 -48 -166 -66
-47 -18 -91 -38 -99 -44 -7 -6 -19 -11 -25 -12 -6 0 -19 -2 -28 -2 -11 -1 -18
-10 -18 -23 0 -16 4 -19 23 -13 58 17 88 34 81 45 -5 9 1 10 20 5 18 -4 39 0
64 13 20 11 61 27 90 36 29 9 52 23 52 30 0 8 5 17 12 21 7 4 8 3 4 -4 -11
-18 9 -15 117 18 53 16 114 32 135 35 21 3 48 7 61 10 29 5 241 9 245 4 2 -2
0 -29 -3 -59 l-6 -55 -57 3 c-32 2 -66 -2 -78 -8 -14 -8 -20 -8 -20 0 0 6 -4
9 -9 6 -4 -3 -33 -7 -62 -10 -66 -5 -185 -33 -219 -51 -14 -7 -41 -16 -60 -20
-19 -4 -46 -15 -59 -23 -13 -9 -29 -17 -35 -19 -37 -7 -56 -13 -96 -31 -25
-11 -80 -34 -122 -52 -59 -24 -78 -37 -78 -51 0 -10 2 -19 4 -19 4 0 133 53
181 75 17 7 48 20 70 28 22 8 85 31 140 51 87 33 130 46 230 72 11 3 77 8 146
11 l126 5 5 -58 c3 -33 4 -60 3 -62 -2 -2 -67 -5 -145 -7 -83 -2 -147 -8 -153
-14 -6 -6 -19 -11 -29 -11 -10 0 -18 -4 -18 -9 0 -5 -11 -8 -24 -5 -14 2 -31
-3 -41 -12 -9 -9 -19 -14 -22 -11 -3 4 -15 1 -27 -5 -11 -7 -28 -12 -36 -13
-8 0 -14 -5 -13 -11 1 -6 -8 -10 -20 -10 -13 1 -21 -4 -19 -11 2 -15 -25 -18
-30 -3 -2 5 -23 2 -50 -7 -26 -8 -45 -19 -43 -24 3 -4 -10 -11 -30 -15 -19 -3
-33 -10 -30 -14 3 -5 -4 -6 -15 -3 -12 3 -20 0 -20 -6 0 -7 -4 -9 -10 -6 -5 3
-27 -3 -49 -15 -22 -11 -47 -20 -56 -20 -16 0 -32 -26 -21 -37 5 -6 70 15 133
43 18 8 61 26 95 39 35 13 62 29 60 35 -2 8 5 10 22 6 18 -4 31 -1 44 12 10
10 24 16 31 14 6 -2 25 1 42 7 16 6 42 16 59 22 16 6 27 15 24 20 -3 5 0 9 5
9 6 0 11 -4 11 -10 0 -6 9 -6 23 -1 46 18 173 33 266 33 147 -1 139 3 165 -74
13 -38 20 -68 16 -68 -9 0 -40 73 -40 95 0 8 -9 19 -19 24 -20 11 -20 8 4 -82
7 -25 5 -27 -24 -27 -17 0 -31 -5 -31 -10 0 -7 -7 -7 -20 0 -30 16 -144 11
-240 -12 -47 -11 -89 -23 -95 -28 -5 -4 -23 -10 -40 -13 -47 -8 -170 -56 -173
-67 -2 -6 -7 -8 -12 -5 -5 3 -55 -13 -112 -34 -57 -22 -124 -47 -151 -57 -33
-12 -47 -22 -47 -35 0 -11 4 -19 10 -19 12 0 122 41 135 50 6 4 28 13 50 20
22 7 65 23 95 35 30 13 83 34 118 46 36 13 58 25 52 29 -9 5 -9 9 -1 14 6 4
16 4 23 0 19 -12 67 -5 94 13 14 8 27 13 30 10 3 -3 31 1 62 8 62 14 144 20
236 17 52 -1 63 -5 83 -29 12 -16 26 -38 29 -50 3 -13 10 -23 15 -23 5 0 9 -4
9 -9 0 -5 -59 -9 -132 -10 -128 0 -177 -3 -215 -15 -10 -3 -30 -7 -44 -10 -73
-12 -331 -105 -534 -191 -16 -7 -49 -18 -73 -24 -31 -9 -42 -17 -42 -31 0 -11
5 -20 11 -20 11 0 102 27 134 40 11 4 36 14 55 20 19 7 58 23 85 35 84 38 265
103 350 126 63 17 118 22 255 26 l175 4 65 -64 65 -64 -230 1 c-212 0 -235 -2
-300 -22 -38 -13 -88 -28 -110 -34 -84 -23 -251 -82 -270 -95 -11 -7 -26 -13
-35 -13 -8 0 -33 -10 -55 -21 -37 -20 -70 -33 -120 -45 -43 -11 -50 -12 -62
-13 -7 -1 -13 -14 -13 -30 l0 -29 48 13 c50 13 121 39 297 106 199 75 287 104
385 126 19 5 149 7 288 5 243 -2 254 -3 290 -25 75 -46 171 -80 294 -103 80
-15 228 -21 246 -10 5 3 33 8 62 11 30 4 61 10 71 15 9 5 30 12 47 15 40 7
154 67 218 115 96 72 189 183 244 290 29 58 65 169 56 177 -11 11 -25 -10 -41
-60 -10 -28 -29 -77 -43 -107 -14 -30 -26 -57 -27 -60 -7 -37 -155 -192 -194
-205 -12 -3 -21 -10 -21 -15 0 -11 -116 -80 -133 -80 -7 0 4 10 23 21 19 12
37 24 40 28 3 3 19 13 35 21 17 8 71 55 120 105 68 68 100 110 132 170 38 73
104 261 84 239 -5 -5 -19 -40 -31 -79 -42 -130 -97 -222 -190 -316 -144 -145
-308 -217 -510 -224 -81 -3 -156 3 -220 18 -8 2 -46 14 -85 27 -51 18 -64 25
-47 28 13 2 41 -4 63 -12 22 -9 47 -16 57 -15 9 0 12 3 5 5 -13 6 -6 35 12 46
6 4 11 17 10 30 -1 17 -8 23 -27 23 -15 1 -32 6 -40 12 -7 6 -35 20 -61 32
-45 21 -50 21 -73 6 -22 -14 -29 -31 -25 -62 4 -26 -43 -12 -103 31 -106 76
-106 76 30 75 66 0 142 3 170 6 40 6 67 2 116 -14 74 -25 205 -35 276 -21 278
52 483 294 474 560 -5 152 -66 291 -178 404 -130 130 -336 188 -529 149 -132
-27 -259 -107 -339 -215 l-28 -38 -77 1 c-42 0 -93 3 -114 7 l-37 7 26 50
c120 225 348 376 609 401 67 7 64 7 125 0 102 -12 120 -16 196 -41 220 -74
383 -216 477 -416 26 -56 65 -217 71 -289 6 -81 7 -84 16 -35 6 35 7 31 8 -30
1 -38 -2 -87 -7 -108 -9 -36 3 -64 12 -30 30 109 35 306 8 322 -11 7 -11 9 0
14 8 3 5 6 -8 6 -14 1 -21 -4 -18 -11 10 -31 13 -78 3 -72 -5 3 -7 8 -5 11 7
6 -40 177 -60 222 -33 72 -104 173 -166 235 -96 97 -178 149 -306 197 -42 15
-70 28 -64 29 40 1 229 -89 298 -142 45 -35 138 -129 167 -168 38 -53 106
-183 112 -214 5 -29 23 -56 37 -56 5 0 4 11 -1 25 -5 14 -8 25 -5 25 9 0 -55
140 -92 200 -52 86 -111 150 -199 215 -124 94 -251 142 -444 171 -19 3 -39 6
-45 7 -5 2 -44 0 -85 -4z m-2 -40 c-7 -5 -21 -9 -32 -9 -15 0 -16 3 -7 14 7 8
21 12 32 9 16 -5 18 -8 7 -14z m-84 -10 c-3 -5 -13 -9 -23 -9 -10 0 -38 -7
-61 -15 -52 -18 -64 -13 -21 10 17 8 31 13 31 10 0 -3 7 -2 17 3 20 12 64 12
57 1z m259 4 c-7 -2 -21 -2 -30 0 -10 3 -4 5 12 5 17 0 24 -2 18 -5z m-408
-43 c-3 -5 -16 -10 -28 -9 -20 1 -20 2 3 9 14 4 26 8 28 9 2 1 0 -3 -3 -9z
m-65 -25 c-7 -8 -15 -13 -19 -10 -4 2 -15 -5 -24 -16 -9 -10 -22 -19 -29 -19
-16 1 43 50 60 50 6 0 12 5 12 12 0 6 3 8 6 5 4 -4 1 -13 -6 -22z m-90 -50 c0
-8 -6 -15 -13 -15 -17 0 -158 -142 -194 -195 -15 -22 -42 -67 -60 -100 -18
-33 -33 -56 -33 -52 0 12 69 160 78 167 5 3 21 22 36 42 15 20 60 63 99 95 40
32 74 61 75 66 6 12 12 8 12 -8z m624 -150 c242 -79 388 -282 387 -536 -2
-205 -105 -365 -303 -471 -118 -64 -265 -79 -395 -42 -51 14 -52 15 -46 45 l6
31 -46 -7 c-38 -6 -53 -3 -82 15 -19 12 -35 26 -35 30 0 5 -9 14 -19 19 -16 9
-18 8 -14 -9 3 -12 15 -26 27 -32 11 -6 27 -17 34 -25 16 -16 7 -16 -176 -18
l-124 -1 -24 29 c-40 47 -58 95 -44 112 10 12 8 16 -14 25 -14 5 -26 16 -26
24 0 7 -7 27 -15 42 -8 16 -15 37 -15 48 0 16 6 18 58 13 31 -4 83 -6 115 -7
40 0 57 -4 57 -13 0 -15 62 -99 68 -93 2 3 -8 25 -23 51 -15 25 -26 47 -24 49
2 2 36 6 74 10 98 8 148 17 161 27 6 5 14 6 17 2 4 -3 9 2 13 11 4 11 18 16
46 16 34 0 39 3 33 18 -22 52 -18 57 17 25 18 -18 36 -33 39 -33 3 0 5 24 5
53 -1 47 -3 53 -19 49 -13 -3 -15 -8 -8 -15 6 -6 11 -20 11 -31 0 -18 -3 -17
-31 10 -28 26 -36 29 -87 25 -61 -3 -80 -10 -64 -20 7 -4 6 -16 -2 -36 l-13
-30 -13 38 c-9 24 -20 37 -32 37 -17 0 -16 -4 7 -37 32 -48 32 -63 -2 -64 -16
-1 -39 -3 -53 -5 -99 -13 -111 -11 -122 15 -17 47 -21 101 -6 102 157 6 234
21 221 42 -4 7 0 7 10 -2 14 -11 18 -11 23 3 3 9 17 16 31 16 17 0 23 5 21 18
-2 11 4 18 20 20 15 2 22 -2 22 -12 0 -12 11 -16 45 -16 42 0 44 1 33 20 -17
27 -1 38 18 12 8 -12 24 -22 36 -22 19 0 19 1 -3 19 l-24 19 24 26 c35 37 44
32 39 -19 -3 -41 -1 -45 19 -45 13 0 23 5 23 10 0 6 -4 10 -10 10 -5 0 -10 18
-10 40 0 38 2 40 20 30 15 -8 20 -8 20 1 0 25 13 -2 17 -33 2 -18 -2 -35 -9
-40 -8 -5 1 -7 22 -7 19 0 29 3 23 6 -7 2 -13 13 -13 24 0 14 7 19 25 19 26 0
33 -18 14 -37 -9 -9 -7 -11 7 -8 11 2 32 4 47 4 21 1 27 5 25 19 -2 11 4 18
20 20 16 3 22 -2 22 -16 0 -15 5 -19 21 -15 11 3 16 9 11 12 -5 3 -19 25 -31
49 -12 23 -25 40 -30 38 -5 -3 -14 -26 -21 -51 -7 -25 -19 -45 -26 -45 -19 0
-30 70 -13 81 10 6 3 8 -21 8 -19 0 -29 -3 -22 -6 6 -2 12 -14 12 -25 0 -14
-6 -19 -22 -16 -17 2 -22 9 -20 26 1 18 -2 22 -15 18 -10 -3 -40 -6 -67 -8
-29 -1 -50 -7 -53 -15 -4 -10 -9 -11 -18 -3 -14 12 -74 10 -81 -2 -3 -4 0 -8
5 -8 6 0 11 -18 11 -41 0 -50 -14 -48 -45 6 -12 22 -25 40 -30 40 -4 0 -14
-21 -22 -47 -14 -48 -35 -63 -47 -32 -10 26 -7 64 6 64 9 0 9 3 0 12 -8 8 -15
8 -27 -2 -16 -13 -16 -35 0 -72 4 -11 3 -18 -4 -18 -6 0 -11 10 -11 23 0 15
-3 18 -8 9 -6 -8 -13 -1 -25 23 -12 25 -21 33 -32 28 -12 -4 -13 -9 -6 -16 19
-19 13 -75 -8 -82 -30 -9 -152 -22 -155 -16 -5 10 2 100 9 111 8 13 55 13 55
1 0 -6 -4 -12 -9 -15 -18 -11 0 -46 22 -42 26 4 44 46 20 46 -30 0 0 19 37 24
69 9 99 18 104 32 3 8 12 11 23 7 17 -6 17 -6 1 10 -16 16 -22 16 -105 -3 -48
-12 -100 -20 -114 -18 l-27 3 20 53 c11 29 25 55 31 57 7 2 21 7 32 11 11 4
25 8 30 9 89 13 107 19 124 44 10 14 16 33 12 41 -9 22 -45 19 -49 -5 -6 -29
-14 -35 -57 -40 -22 -3 -42 -10 -46 -16 -4 -6 -12 -10 -18 -8 -34 12 110 145
203 188 142 65 275 73 420 26z m-944 -300 c-7 -25 -16 -45 -20 -45 -11 0 -7
19 8 47 7 12 12 29 12 39 0 10 3 14 6 11 4 -4 1 -27 -6 -52z m260 48 c0 0 -10
-27 -22 -58 l-21 -56 -109 2 c-59 1 -108 5 -108 8 0 16 23 88 32 98 6 8 45 11
119 10 60 -1 109 -3 109 -4z m-287 -190 c-6 -81 -11 -89 -12 -17 -1 50 4 74
14 74 1 0 0 -26 -2 -57z m715 39 c-5 -23 -28 -27 -28 -4 0 10 7 19 15 19 9 0
15 -7 13 -15z m312 8 c0 -5 -5 -10 -11 -10 -5 0 -7 5 -4 10 3 6 8 10 11 10 2
0 4 -4 4 -10z m-798 -9 c4 0 6 -25 5 -53 l-2 -53 -110 1 -110 2 1 38 c1 22 2
46 3 55 1 14 15 16 104 14 56 -1 105 -3 109 -4z m365 -33 c-3 -8 -6 -5 -6 6
-1 11 2 17 5 13 3 -3 4 -12 1 -19z m-132 -56 c-9 -9 -25 11 -25 31 1 21 1 21
15 -3 7 -14 12 -27 10 -28z m-239 -61 c9 -1 34 -90 34 -121 0 -6 -165 -4 -205
3 -21 4 -32 32 -34 89 l-1 36 98 -3 c53 -2 102 -4 108 -4z m335 -23 c1 -7 3
-23 4 -35 2 -16 -5 -25 -27 -32 -29 -10 -29 -10 -23 22 8 34 22 57 36 57 5 0
10 -6 10 -12z m59 -28 c0 -29 -4 -40 -15 -40 -8 0 -15 8 -15 18 0 9 -3 27 -6
40 -5 18 -2 22 15 22 18 0 21 -6 21 -40z m-614 -24 c2 -14 1 -26 -3 -26 -5 0
-9 14 -9 31 -2 35 5 33 12 -5z m104 -289 c0 -5 12 -24 26 -43 15 -19 25 -37
22 -40 -10 -10 -78 92 -78 117 0 14 29 -20 30 -34z m179 -210 c9 -11 25 -23
36 -27 13 -6 15 -9 5 -9 -17 -1 -140 105 -140 121 0 9 66 -47 99 -85z m205 27
c14 -5 14 -9 0 -35 -18 -36 -54 -40 -54 -6 0 22 16 47 31 47 4 0 14 -3 23 -6z
m70 -39 c3 -8 -6 -14 -25 -17 -32 -5 -33 -4 -19 22 11 20 35 18 44 -5z m28
-77 c-9 -9 -15 -9 -24 0 -9 9 -7 12 12 12 19 0 21 -3 12 -12z m-82 -38 c91
-36 99 -40 65 -33 -16 3 -57 19 -90 35 -67 31 -58 31 25 -2z m620 -7 c0 -5
-12 -9 -27 -10 -19 -1 -22 1 -12 8 17 11 39 12 39 2z m-85 -28 c-39 -17 -127
-30 -104 -16 9 6 31 12 48 13 18 1 35 6 37 10 3 4 15 8 27 7 19 -1 18 -2 -8
-14z m-355 -25 c0 -5 -2 -10 -4 -10 -3 0 -8 5 -11 10 -3 6 -1 10 4 10 6 0 11
-4 11 -10z m205 0 c-3 -5 -16 -10 -28 -9 -20 1 -20 2 3 9 14 4 26 8 28 9 2 1
0 -3 -3 -9z"/>
<path d="M1731 1921 c-18 -12 -5 -46 19 -48 24 -2 38 36 19 48 -8 5 -16 9 -19
9 -3 0 -11 -4 -19 -9z"/>
<path d="M1570 1895 c0 -7 -4 -15 -9 -17 -19 -6 15 -37 36 -32 15 4 19 12 15
29 -4 25 -42 43 -42 20z"/>
<path d="M1887 1881 c-6 -25 32 -45 50 -25 7 7 10 20 7 28 -9 23 -51 20 -57
-3z"/>
<path d="M1952 1823 c-6 -2 -10 -9 -7 -14 4 -5 -1 -6 -9 -3 -8 3 -23 1 -32 -4
-16 -9 -15 -10 4 -16 12 -4 27 -4 33 0 8 4 9 3 5 -4 -4 -7 -1 -12 8 -12 11 0
16 9 16 30 0 17 -1 30 -2 29 -2 0 -9 -3 -16 -6z"/>
<path d="M2040 1809 c-8 -14 -7 -23 2 -33 18 -19 48 -8 48 19 0 30 -36 40 -50
14z"/>
<path d="M1690 1797 c-19 -7 -34 -17 -33 -22 1 -6 -30 -11 -68 -13 -44 -2 -69
1 -69 7 0 6 -4 11 -9 11 -9 0 -4 -140 5 -149 12 -12 115 3 159 23 28 12 56 21
63 18 6 -2 12 1 12 6 0 6 10 12 23 15 12 2 -2 4 -31 4 -28 1 -55 -3 -58 -9 -4
-6 2 -8 17 -3 18 5 21 4 9 -4 -8 -6 -23 -8 -34 -5 -10 4 -16 2 -13 -2 3 -5
-27 -10 -67 -11 l-71 -1 55 7 c31 4 72 16 92 25 30 15 52 17 120 11 64 -5 93
-3 127 9 24 9 46 14 49 11 3 -3 0 -5 -7 -5 -7 0 -10 -3 -8 -7 3 -5 -5 -9 -16
-10 -23 -1 -87 -10 -147 -20 -30 -5 -32 -7 -15 -13 58 -24 202 6 199 40 -1 8
-2 23 -3 33 0 9 -6 17 -11 17 -6 0 -27 7 -48 16 -20 8 -59 17 -87 18 -27 1
-61 5 -75 9 -14 3 -41 1 -60 -6z m80 -27 c25 -5 56 -11 70 -14 22 -3 -11 -1
-122 9 -54 5 -54 5 -38 15 8 5 22 7 30 4 8 -3 35 -9 60 -14z m88 3 c-10 -2
-28 -2 -40 0 -13 2 -5 4 17 4 22 1 32 -1 23 -4z m74 -20 c-6 -2 -10 -8 -8 -11
2 -4 -26 -8 -62 -9 l-67 -1 58 8 c32 4 61 10 64 14 4 3 11 6 17 5 6 0 5 -3 -2
-6z m-231 -10 c-11 -5 -11 -7 0 -15 10 -6 7 -7 -10 -3 -15 5 -21 3 -17 -3 3
-6 1 -14 -5 -18 -8 -5 -9 -3 -4 6 5 9 1 10 -16 6 -16 -5 -12 0 11 13 19 11 40
20 45 20 6 0 4 -3 -4 -6z m76 1 c-3 -3 -12 -4 -19 -1 -8 3 -5 6 6 6 11 1 17
-2 13 -5z m6 -21 c-7 -2 -19 -2 -25 0 -7 3 -2 5 12 5 14 0 19 -2 13 -5z m44
-9 c-3 -3 -12 -4 -19 -1 -8 3 -5 6 6 6 11 1 17 -2 13 -5z m46 -1 c-7 -2 -19
-2 -25 0 -7 3 -2 5 12 5 14 0 19 -2 13 -5z m-280 -30 c-13 -2 -33 -2 -45 0
-13 2 -3 4 22 4 25 0 35 -2 23 -4z m255 -10 c-10 -2 -26 -2 -35 0 -10 3 -2 5
17 5 19 0 27 -2 18 -5z m-208 -23 c-8 -5 -35 -9 -60 -8 l-45 1 50 7 c28 4 55
7 60 8 6 1 3 -3 -5 -8z"/>
<path d="M1325 1690 c-4 -6 -11 -8 -16 -5 -5 4 -8 -5 -7 -19 1 -15 6 -26 9
-26 4 0 14 -3 22 -6 20 -7 30 35 12 52 -9 9 -16 10 -20 4z"/>
<path d="M2153 1681 c-15 -24 6 -46 34 -37 17 6 27 46 12 46 -4 0 -13 2 -21 5
-7 3 -18 -3 -25 -14z"/>
<path d="M2023 1590 c2 -24 21 -21 25 3 2 10 -3 17 -12 17 -9 0 -14 -8 -13
-20z"/>
<path d="M2067 1603 c-17 -16 -5 -42 23 -52 17 -5 30 -14 30 -20 0 -17 -20
-23 -36 -10 -16 13 -30 6 -19 -10 10 -16 51 -13 66 5 16 20 2 46 -30 54 -30 7
-26 25 5 23 13 -1 24 2 24 8 0 10 -53 13 -63 2z"/>
<path d="M2207 1520 c-3 -10 1 -24 8 -30 19 -16 45 -1 45 26 0 19 -5 24 -24
24 -15 0 -26 -7 -29 -20z"/>
<path d="M2087 1443 c-9 -2 -15 -8 -12 -13 2 -4 7 -24 10 -44 5 -31 4 -36 -14
-36 -11 0 -25 9 -31 20 -6 11 -17 20 -25 20 -8 0 -15 7 -15 15 0 8 7 15 15 15
8 0 15 -7 15 -15 0 -8 5 -15 10 -15 15 0 12 37 -3 43 -21 8 -84 -7 -69 -16 6
-5 12 -24 12 -43 0 -50 -25 -44 -51 13 -20 44 -22 46 -35 28 -8 -10 -14 -26
-14 -35 0 -8 -7 -26 -16 -38 -14 -20 -14 -22 4 -22 13 0 19 6 18 18 -1 11 6
17 19 17 11 0 19 -5 18 -12 -3 -16 16 -20 62 -12 22 3 34 7 28 8 -7 0 -13 11
-13 24 l1 22 20 -24 c17 -21 28 -24 72 -22 30 1 59 9 69 18 21 19 24 56 5 71
-16 13 -57 21 -80 15z m67 -39 c7 -28 -3 -46 -29 -50 -10 -1 -15 6 -15 21 0
13 -3 30 -6 39 -5 12 0 16 19 16 19 0 27 -7 31 -26z m-244 -24 c0 -5 -4 -10
-10 -10 -5 0 -10 5 -10 10 0 6 5 10 10 10 6 0 10 -4 10 -10z"/>
<path d="M1790 1416 c-3 -2 -34 -6 -68 -7 -53 -2 -62 -5 -55 -18 4 -9 7 -33 8
-53 0 -32 3 -38 22 -38 30 0 73 17 73 29 0 5 -12 4 -27 -4 -29 -15 -43 -12
-43 12 0 10 6 14 20 10 12 -3 20 0 20 7 0 20 -12 27 -25 16 -9 -8 -14 -5 -18
10 -5 18 -1 19 34 16 55 -5 104 -63 67 -80 -7 -3 -2 -4 12 -3 20 2 24 7 22 25
-2 13 4 34 12 47 20 30 20 35 1 35 -9 0 -15 -10 -15 -26 0 -31 -22 -28 -30 5
-3 12 -7 20 -10 17z"/>
<path d="M1249 1359 c-14 -27 14 -57 36 -39 21 18 18 47 -5 53 -13 3 -24 -1
-31 -14z"/>
<path d="M2212 1364 c-19 -20 1 -54 28 -47 13 4 20 14 20 31 0 14 -3 22 -7 19
-3 -4 -11 -3 -17 2 -7 6 -16 4 -24 -5z"/>
<path d="M1309 1218 c-8 -30 -6 -47 8 -52 21 -9 46 16 37 37 -5 13 -42 25 -45
15z"/>
<path d="M2147 1200 c-3 -10 2 -25 12 -33 14 -13 18 -12 33 2 20 19 10 43 -20
48 -13 1 -22 -4 -25 -17z"/>
<path d="M1846 1191 c-4 -5 0 -11 6 -14 10 -3 10 -7 1 -17 -8 -9 -12 -7 -18 9
-7 24 -45 29 -45 6 0 -8 -7 -15 -16 -15 -14 0 -14 3 -4 15 8 10 9 15 2 15 -6
0 -16 -8 -21 -17 -6 -10 -11 -12 -11 -5 0 6 -7 12 -16 12 -12 0 -14 -4 -6 -12
5 -7 8 -24 6 -37 -4 -21 -2 -23 23 -15 16 4 39 7 53 7 14 -1 28 4 32 10 6 9 8
9 8 0 0 -6 7 -10 15 -9 19 3 32 16 15 16 -9 0 -10 3 -1 14 6 7 9 21 5 30 -7
18 -20 21 -28 7z m-26 -43 c0 -19 -2 -20 -10 -8 -13 19 -13 30 0 30 6 0 10
-10 10 -22z m-40 -8 c0 -5 -4 -10 -10 -10 -5 0 -10 5 -10 10 0 6 5 10 10 10 6
0 10 -4 10 -10z"/>
<path d="M1425 1114 c-62 -12 -115 -15 -285 -13 -60 1 -60 1 -60 -15 0 -21 18
-30 34 -17 13 11 37 10 68 -3 9 -4 64 -6 122 -3 84 3 106 1 106 -10 0 -20 44
-16 57 6 7 11 26 22 43 26 22 5 30 11 26 22 -3 8 -6 17 -6 19 0 6 -27 3 -105
-12z"/>
<path d="M2044 1081 c-16 -26 -6 -49 22 -47 29 1 33 35 6 53 -15 9 -20 8 -28
-6z"/>
<path d="M1563 1001 c-16 -26 6 -51 35 -40 19 7 21 12 13 28 -15 27 -36 32
-48 12z"/>
<path d="M1908 1003 c-23 -6 -23 -35 0 -50 15 -9 21 -7 30 7 14 22 -5 49 -30
43z"/>
<path d="M1730 969 c0 -4 -3 -14 -6 -22 -8 -21 32 -32 50 -15 10 11 11 18 2
29 -11 16 -46 22 -46 8z"/>
<path d="M1675 2150 c-3 -5 -1 -10 5 -10 19 0 8 -84 -11 -88 -13 -2 -18 7 -21
35 -3 21 0 44 6 52 9 12 6 13 -19 7 -16 -4 -37 -7 -45 -7 -30 -1 -85 -22 -93
-36 -6 -9 -13 -11 -20 -5 -8 7 -27 2 -57 -13 -25 -13 -38 -24 -30 -25 9 0 21
-15 28 -33 14 -40 15 -50 3 -42 -6 3 -15 -4 -21 -15 -14 -25 -53 -28 -48 -2 2
10 11 16 21 14 15 -3 16 0 5 17 -11 17 -13 18 -23 4 -12 -16 -35 -11 -35 7 0
9 39 25 53 22 4 -1 7 2 7 7 0 20 -27 17 -62 -7 l-37 -24 24 -21 c31 -29 41
-63 20 -70 -23 -9 -50 6 -50 28 0 33 -37 30 -70 -6 -18 -20 -23 -30 -13 -26
11 4 25 -5 43 -29 14 -19 21 -34 15 -34 -6 0 -13 7 -16 15 -5 12 -10 13 -20 4
-17 -14 -18 -30 -1 -27 6 2 12 -6 12 -17 0 -41 -69 -23 -77 20 -2 13 5 23 20
30 23 10 30 25 12 25 -17 0 -50 -39 -50 -60 0 -26 34 -60 60 -60 11 0 28 10
38 22 9 12 27 31 40 43 22 22 30 41 13 31 -5 -3 -15 2 -22 11 -13 14 -11 15
20 11 27 -4 45 2 90 32 31 20 77 46 104 58 30 13 47 27 47 38 0 15 -3 15 -20
-4 -23 -24 -45 -28 -56 -11 -8 13 16 30 30 22 5 -4 7 1 3 11 -4 10 -7 20 -7
24 0 3 -7 -3 -15 -14 -13 -16 -16 -17 -25 -4 -13 20 10 37 49 34 18 -1 32 4
35 12 9 24 22 15 34 -23 9 -29 9 -39 -1 -45 -15 -10 14 -11 37 -2 15 6 15 8 1
18 -8 6 -18 26 -21 45 -7 31 -5 34 14 29 12 -3 23 -1 25 6 9 23 22 -7 22 -49
0 -24 3 -41 7 -39 3 2 25 5 47 6 23 1 41 5 41 10 0 4 -4 8 -10 8 -5 0 -10 15
-10 33 0 23 3 28 9 17 6 -8 7 -18 4 -24 -3 -5 -1 -6 5 -2 6 4 19 -5 28 -19 24
-37 33 -31 28 20 -2 24 1 47 6 50 16 10 11 21 -9 22 -17 1 -19 -3 -14 -35 l5
-37 -35 38 c-39 40 -43 42 -52 27z m-415 -213 c0 -8 -3 -17 -7 -20 -9 -9 -34
13 -27 24 8 14 34 11 34 -4z"/>
<path d="M1806 2134 c-42 -41 -11 -108 47 -100 15 2 27 1 27 -3 0 -4 6 -8 13
-8 6 0 22 -3 34 -7 17 -5 25 -2 34 15 10 20 8 26 -15 45 -26 23 -34 44 -17 44
5 0 16 -7 24 -15 13 -13 16 -13 21 0 6 17 -34 31 -59 21 -23 -9 -18 -44 10
-62 14 -9 25 -20 25 -25 0 -17 -37 -9 -55 11 -10 11 -14 20 -9 20 11 0 -18 20
-29 20 -5 0 -6 -8 -2 -19 7 -22 -17 -35 -34 -18 -16 16 -14 62 4 77 12 10 20
9 40 -4 20 -13 25 -14 25 -2 0 13 -28 26 -57 26 -6 0 -19 -7 -27 -16z"/>
<path d="M2035 2059 c-4 -17 -15 -39 -25 -49 -17 -17 -17 -18 6 -29 21 -9 23
-8 21 12 -1 14 3 22 13 22 8 0 14 -6 12 -14 -3 -12 0 -12 12 -1 22 17 20 30
-4 30 -24 0 -26 18 -3 27 10 4 23 -2 35 -16 17 -21 18 -22 18 -4 0 12 -13 25
-35 36 -45 22 -42 22 -50 -14z"/>
<path d="M2136 2027 c3 -8 -8 -28 -24 -45 -28 -30 -29 -32 -11 -48 18 -16 19
-16 19 4 0 38 19 33 22 -5 2 -29 7 -38 20 -37 10 1 15 -2 13 -7 -9 -14 33 -49
58 -49 30 0 57 29 57 62 0 52 -66 74 -98 33 -25 -31 -32 -31 -32 -1 0 17 5 23
17 22 30 -2 28 39 -3 63 -31 24 -46 27 -38 8z m44 -43 c0 -14 -21 -19 -33 -7
-9 9 13 34 24 27 5 -3 9 -12 9 -20z m88 -70 c4 -26 -22 -54 -49 -54 -28 0 -34
26 -14 56 20 31 58 30 63 -2z"/>
<path d="M2310 1877 c0 -8 -18 -24 -40 -35 -31 -15 -37 -22 -27 -30 10 -8 16
-6 25 9 7 10 17 19 24 19 7 0 6 -6 -4 -17 -35 -41 -33 -46 8 -40 35 6 37 5 20
-8 -10 -8 -23 -12 -27 -9 -15 9 -10 -17 6 -32 13 -13 15 -13 15 -1 0 16 46 50
67 50 7 0 13 6 13 14 0 15 -22 17 -68 4 l-32 -10 18 27 c31 45 32 49 17 62
-12 10 -15 10 -15 -3z"/>
<path d="M2420 1713 c0 -14 -65 -37 -80 -28 -13 8 -13 -8 2 -40 8 -19 19 -25
42 -25 24 0 27 -3 16 -10 -8 -5 -22 -7 -31 -5 -13 5 -14 -1 -5 -38 7 -34 14
-43 27 -40 9 3 19 -3 23 -12 8 -21 -2 -38 -18 -32 -9 4 -13 -9 -12 -44 0 -39
2 -46 13 -37 9 7 17 8 24 1 6 -6 1 -14 -16 -23 -14 -7 -25 -22 -25 -33 0 -20
1 -19 25 3 24 23 26 23 39 5 11 -16 17 -17 29 -7 16 13 28 92 15 92 -5 0 -8
-4 -8 -8 0 -7 -23 -8 -78 -3 -24 2 5 37 47 56 41 18 52 33 29 39 -7 2 -32 9
-56 15 -53 15 -53 38 0 57 28 9 38 10 42 1 3 -7 5 -3 3 8 -2 16 -12 21 -47 25
l-45 5 34 26 c28 22 32 29 23 45 -6 11 -12 14 -12 7z m-41 -52 c-13 -11 -26
-17 -29 -14 -6 6 30 33 43 33 5 0 -1 -9 -14 -19z m71 -145 c0 -3 -4 -8 -10
-11 -5 -3 -10 -1 -10 4 0 6 5 11 10 11 6 0 10 -2 10 -4z m30 -132 c0 -9 -7
-14 -17 -12 -25 5 -28 28 -4 28 12 0 21 -6 21 -16z"/>
<path d="M2518 1335 c-2 -19 -1 -35 3 -35 4 0 9 16 11 35 2 19 1 35 -3 35 -4
0 -9 -16 -11 -35z"/>
<path d="M2459 1316 c8 -9 11 -19 8 -22 -9 -9 -77 5 -77 16 0 6 -4 10 -10 10
-5 0 -10 -11 -10 -24 0 -18 4 -23 18 -19 10 2 34 1 52 -4 31 -8 32 -10 16 -25
-9 -9 -12 -19 -7 -22 15 -9 29 16 33 59 2 33 0 40 -17 43 -17 4 -18 2 -6 -12z"/>
<path d="M2351 1219 c-9 -28 -9 -30 5 -19 20 18 38 -1 29 -30 -7 -22 -42 -24
-37 -2 4 21 -6 13 -27 -24 -20 -34 -21 -37 -4 -49 14 -11 15 -15 4 -29 -7 -8
-22 -14 -33 -13 -12 1 -23 -3 -25 -9 -4 -11 104 -30 114 -20 2 2 -7 21 -22 41
-14 21 -25 46 -25 56 0 15 4 16 33 8 17 -5 38 -16 44 -25 11 -16 13 -16 19 2
4 10 9 23 12 27 2 5 -2 8 -9 6 -41 -5 -48 5 -26 35 12 16 15 17 29 3 14 -14
16 -13 27 10 10 22 9 25 -4 19 -19 -7 -66 10 -81 30 -10 12 -14 10 -23 -17z
m-1 -169 c0 -5 -2 -10 -4 -10 -3 0 -8 5 -11 10 -3 6 -1 10 4 10 6 0 11 -4 11
-10z"/>
<path d="M2214 992 c-50 -41 -30 -83 31 -64 43 13 56 -2 19 -21 -18 -10 -23
-16 -15 -22 16 -9 51 23 51 46 0 22 -33 33 -59 20 -27 -15 -41 -14 -41 4 0 8
11 17 25 21 25 6 32 18 17 27 -4 3 -16 -2 -28 -11z"/>
<path d="M2307 983 c-4 -3 -2 -15 4 -25 8 -14 14 -17 21 -10 8 8 6 15 -4 26
-9 8 -18 12 -21 9z"/>
<path d="M2097 894 c-3 -3 0 -24 5 -47 5 -23 7 -50 5 -59 -6 -22 6 -23 23 -3
7 8 8 15 2 15 -9 0 -26 59 -18 67 2 2 17 -9 34 -25 23 -22 33 -26 45 -17 12 8
5 16 -39 42 -29 17 -55 29 -57 27z"/>
<path d="M2022 851 c-11 -6 -8 -16 12 -45 14 -21 22 -44 19 -53 -5 -13 -3 -14
16 -3 20 10 21 14 8 28 -18 21 -31 53 -28 70 2 14 -8 15 -27 3z"/>
<path d="M1945 820 c-27 -10 -60 -19 -73 -19 -21 -1 -22 -2 -8 -17 9 -8 16
-25 16 -37 0 -19 -3 -18 -33 11 -35 34 -92 46 -81 17 4 -8 -1 -17 -9 -21 -9
-3 -13 -14 -10 -27 2 -12 -5 -4 -15 17 -19 39 -28 44 -84 49 -24 3 -27 0 -22
-18 4 -15 -4 -32 -21 -53 -26 -31 -26 -32 -5 -32 12 0 19 4 16 9 -3 4 1 17 9
27 13 18 14 17 21 -13 4 -23 12 -33 25 -33 24 0 24 1 -2 45 -15 25 -19 39 -11
47 16 16 32 0 57 -56 l23 -51 27 60 c26 57 27 59 37 35 5 -14 8 -37 5 -52 -3
-22 1 -28 15 -28 10 0 18 5 18 10 0 6 -4 10 -8 10 -4 0 -9 12 -10 27 l-2 27
33 -32 c36 -35 64 -43 52 -14 -15 32 -18 85 -6 78 6 -4 18 0 27 9 18 18 45 17
52 -2 2 -8 -5 -13 -17 -13 -12 0 -21 -6 -21 -13 0 -23 12 -27 26 -9 12 16 13
16 20 -2 8 -21 -10 -36 -38 -31 -17 4 -24 -6 -12 -17 8 -9 94 22 94 34 0 5 -4
7 -8 4 -11 -7 -32 61 -25 80 3 8 4 14 2 13 -2 0 -26 -9 -54 -19z"/>
</g>
</svg>
