<?xml version="1.0" encoding="iso-8859-1"?>
<!-- Generator: Adobe Illustrator 19.0.0, SVG Export Plug-In . SVG Version: 6.00 Build 0)  -->
<svg xmlns="http://www.w3.org/2000/svg" xmlns:xlink="http://www.w3.org/1999/xlink" version="1.1" id="Capa_1" x="0px" y="0px" viewBox="0 0 470 470" style="enable-background:new 0 0 470 470;" xml:space="preserve" width="512px" height="512px">
<g>
	<path d="M455.017,207.543l-47.261-47.261V94.815c10.132-3.193,17.5-12.676,17.5-23.849V51.208c0-10.752-8.748-19.5-19.5-19.5h-81   c-10.752,0-19.5,8.748-19.5,19.5v6.574L256.289,8.815C250.604,3.131,243.047,0,235.007,0c-8.039,0-15.597,3.131-21.281,8.815   L60.063,162.478c-2.929,2.929-2.929,7.677,0,10.606c2.93,2.929,7.678,2.929,10.608,0L224.333,19.422   C227.184,16.57,230.975,15,235.007,15c4.033,0,7.824,1.57,10.675,4.422l198.728,198.728c5.887,5.886,5.887,15.464,0,21.35   c-2.851,2.852-6.642,4.422-10.675,4.422c-4.032,0-7.823-1.57-10.675-4.422L240.311,56.75c-2.93-2.929-7.678-2.929-10.607,0   L46.954,239.5c-2.851,2.852-6.642,4.422-10.675,4.422c-4.032,0-7.823-1.57-10.675-4.422s-4.422-6.643-4.422-10.675   c0-4.032,1.57-7.823,4.423-10.675l23.852-23.852c2.929-2.929,2.929-7.678,0-10.606c-2.931-2.929-7.678-2.928-10.607,0   l-23.851,23.851c-5.686,5.685-8.816,13.243-8.816,21.282c0,8.04,3.131,15.597,8.815,21.282s13.242,8.815,21.281,8.815   c2.912,0,5.759-0.416,8.479-1.21V462.5c0,4.142,3.357,7.5,7.5,7.5h365.498c4.143,0,7.5-3.358,7.5-7.5V257.711   c2.719,0.794,5.566,1.211,8.479,1.211c8.04,0,15.598-3.131,21.282-8.815C466.751,238.371,466.751,219.277,455.017,207.543z    M320.256,70.966V51.208c0-2.481,2.019-4.5,4.5-4.5h81c2.481,0,4.5,2.019,4.5,4.5v19.758c0,5.514-4.486,10-10,10s-10-4.486-10-10   c0-4.142-3.357-7.5-7.5-7.5s-7.5,3.358-7.5,7.5c0,5.514-4.486,10-10,10s-10-4.486-10-10c0-4.142-3.357-7.5-7.5-7.5   s-7.5,3.358-7.5,7.5c0,5.514-4.486,10-10,10c-0.688,0-1.365-0.076-2.028-0.212l-7.759-7.758   C320.333,72.332,320.256,71.655,320.256,70.966z M347.756,88.803c4.513,4.428,10.693,7.163,17.5,7.163s12.987-2.735,17.5-7.163   c2.781,2.729,6.196,4.811,10,6.01v50.469l-51.749-51.749C343.515,92.333,345.793,90.729,347.756,88.803z M280.284,371.208   c0-2.481,2.019-4.5,4.5-4.5h81c2.481,0,4.5,2.019,4.5,4.5v19.758c0,5.514-4.486,10-10,10s-10-4.486-10-10   c0-4.142-3.357-7.5-7.5-7.5s-7.5,3.358-7.5,7.5c0,5.514-4.486,10-10,10s-10-4.486-10-10c0-4.142-3.357-7.5-7.5-7.5   s-7.5,3.358-7.5,7.5c0,5.514-4.486,10-10,10s-10-4.486-10-10V371.208z M366.284,351.733c-0.168-0.004-0.331-0.025-0.5-0.025h-33   v-86.02h29c2.481,0,4.5,2.019,4.5,4.5V351.733z M317.784,351.708h-33c-0.169,0-0.332,0.021-0.5,0.025v-81.545   c0-2.481,2.019-4.5,4.5-4.5h29V351.708z M59.758,335.979H84.73V455H59.758V335.979z M240.313,455v-22.5c0-4.142-3.357-7.5-7.5-7.5   c-4.143,0-7.5,3.358-7.5,7.5V455H99.73V328.479c0-34.623,28.168-62.791,62.791-62.791s62.791,28.168,62.791,62.791V402.5   c0,4.142,3.357,7.5,7.5,7.5c4.143,0,7.5-3.358,7.5-7.5v-66.521h28.972v23.445c-2.498,3.278-4,7.354-4,11.784v19.758   c0,13.785,11.215,25,25,25c6.807,0,12.987-2.735,17.5-7.163c4.513,4.428,10.693,7.163,17.5,7.163s12.987-2.735,17.5-7.163   c4.513,4.428,10.693,7.163,17.5,7.163c13.785,0,25-11.215,25-25v-19.758c0-4.43-1.502-8.506-4-11.784v-23.445h28.972V455H240.313z    M381.284,320.979v-50.791c0-10.752-8.748-19.5-19.5-19.5h-73c-10.752,0-19.5,8.748-19.5,19.5v50.791h-29.34   c-3.787-39.387-37.059-70.291-77.422-70.291s-73.636,30.904-77.422,70.291H59.758V247.91L235.007,72.66l175.249,175.248v73.07   H381.284z" fill="#383a3b"/>
	<path d="M162.521,289.708c-17.369,0-31.5,14.131-31.5,31.5s14.131,31.5,31.5,31.5s31.5-14.131,31.5-31.5   S179.891,289.708,162.521,289.708z M146.021,321.208c0-9.098,7.402-16.5,16.5-16.5s16.5,7.402,16.5,16.5s-7.402,16.5-16.5,16.5   S146.021,330.306,146.021,321.208z" fill="#383a3b"/>
	<path d="M257.043,130.129c-8.45,0-16.294,3.348-22.036,9.04c-5.741-5.692-13.585-9.04-22.035-9.04   c-17.269,0-31.317,14.049-31.317,31.317c0,19.224,12.693,37.041,20.26,45.95c8.865,10.439,22.851,22.629,33.093,22.629   c10.241,0,24.228-12.19,33.093-22.628c7.566-8.91,20.261-26.727,20.261-45.951C288.36,144.178,274.312,130.129,257.043,130.129z    M235.007,215.023c-2.606-0.22-11.946-5.767-22.01-17.751c-10.386-12.369-16.343-25.427-16.343-35.826   c0-8.998,7.32-16.317,16.317-16.317c6.646,0,12.571,3.974,15.098,10.125c1.155,2.813,3.896,4.65,6.938,4.65   c3.041,0,5.781-1.837,6.938-4.65c2.527-6.151,8.453-10.125,15.099-10.125c8.997,0,16.317,7.32,16.317,16.317   c0,10.398-5.957,23.457-16.344,35.826C246.954,209.256,237.614,214.803,235.007,215.023z" fill="#383a3b"/>
	<path d="M166.232,410.332c-4.411,0-8,3.589-8,8s3.589,8,8,8s8-3.589,8-8S170.644,410.332,166.232,410.332z" fill="#383a3b"/>
	<path d="M196.232,390.332c-4.411,0-8,3.589-8,8s3.589,8,8,8s8-3.589,8-8S200.644,390.332,196.232,390.332z" fill="#383a3b"/>
	<path d="M109.443,225.288c-4.411,0-8,3.589-8,8s3.589,8,8,8s8-3.589,8-8S113.854,225.288,109.443,225.288z" fill="#383a3b"/>
</g>
<g>
</g>
<g>
</g>
<g>
</g>
<g>
</g>
<g>
</g>
<g>
</g>
<g>
</g>
<g>
</g>
<g>
</g>
<g>
</g>
<g>
</g>
<g>
</g>
<g>
</g>
<g>
</g>
<g>
</g>
</svg>
