<?xml version="1.0" encoding="iso-8859-1"?>
<!-- Generator: Adobe Illustrator 19.0.0, SVG Export Plug-In . SVG Version: 6.00 Build 0)  -->
<svg xmlns="http://www.w3.org/2000/svg" xmlns:xlink="http://www.w3.org/1999/xlink" version="1.1" id="Layer_1" x="0px" y="0px" viewBox="0 0 511.999 511.999" style="enable-background:new 0 0 511.999 511.999;" xml:space="preserve" width="512px" height="512px">
<g>
	<g>
		<path d="M356.288,162.347l-26.167-2.544c-4.263-0.416-8.009,2.691-8.42,6.93c-0.411,4.239,2.691,8.009,6.929,8.42l26.167,2.543    c0.254,0.025,0.506,0.037,0.755,0.037c3.922,0,7.278-2.98,7.666-6.965C363.628,166.529,360.526,162.758,356.288,162.347z" fill="#383a3b"/>
	</g>
</g>
<g>
	<g>
		<path d="M454.939,171.929l-75.318-7.316c-4.256-0.415-8.008,2.691-8.42,6.929c-0.411,4.239,2.691,8.009,6.928,8.42l75.318,7.316    c0.254,0.025,0.506,0.037,0.755,0.037c3.922,0,7.278-2.981,7.666-6.966C462.279,176.111,459.177,172.34,454.939,171.929z" fill="#383a3b"/>
	</g>
</g>
<g>
	<g>
		<path d="M130.995,150.821c-0.288-4.248-3.968-7.459-8.216-7.171l-45.228,3.068c-4.248,0.288-7.459,3.966-7.171,8.216    c0.276,4.072,3.664,7.19,7.685,7.19c0.175,0,0.353-0.006,0.53-0.018l45.228-3.068C128.072,158.749,131.283,155.07,130.995,150.821    z" fill="#383a3b"/>
	</g>
</g>
<g>
	<g>
		<path d="M477.749,365.909H373.57c-4.348,0-7.886-3.538-7.886-7.886s3.537-7.886,7.886-7.886h48.561    c12.85-0.001,23.305-10.457,23.305-23.307c0-12.851-10.456-23.307-23.307-23.307h-82.853c-4.26,0-7.711,3.452-7.711,7.711    s3.451,7.711,7.711,7.711h82.853c4.348,0,7.886,3.538,7.886,7.886c0,4.348-3.537,7.885-7.885,7.886h-48.56    c-12.851,0-23.307,10.456-23.307,23.307s10.456,23.307,23.307,23.307h104.178c4.348,0,7.885,3.538,7.885,7.886    c0,4.348-3.537,7.886-7.886,7.886h-28.462c-4.259,0-7.711,3.452-7.711,7.711c0,4.258,3.451,7.711,7.711,7.711h28.462    c12.852,0,23.307-10.456,23.307-23.307S490.6,365.909,477.749,365.909z" fill="#383a3b"/>
	</g>
</g>
<g>
	<g>
		<path d="M427.352,397.103h-9.939c-4.259,0-7.711,3.452-7.711,7.711s3.452,7.711,7.711,7.711h9.939c4.26,0,7.711-3.452,7.711-7.711    S431.612,397.103,427.352,397.103z" fill="#383a3b"/>
	</g>
</g>
<g>
	<g>
		<path d="M394.795,397.103h-49.348c-4.26,0-7.711,3.452-7.711,7.711s3.451,7.711,7.711,7.711h49.348    c4.26,0,7.711-3.452,7.711-7.711S399.054,397.103,394.795,397.103z" fill="#383a3b"/>
	</g>
</g>
<g>
	<g>
		<path d="M34.251,353.148h128.19c4.258,0,7.711-3.452,7.711-7.711c0-4.258-3.452-7.711-7.711-7.711H34.251    c-12.852,0-23.307,10.456-23.307,23.307c0,12.851,10.456,23.307,23.307,23.307h89.285c4.348,0,7.886,3.538,7.886,7.886    c0,4.348-3.538,7.886-7.886,7.886h-19.807c-12.85,0-23.305,10.456-23.305,23.307c0,12.851,10.456,23.307,23.307,23.307h52.54    c4.258,0,7.711-3.452,7.711-7.711s-3.452-7.711-7.711-7.711h-52.54c-4.348,0-7.886-3.538-7.886-7.886    c0-4.348,3.537-7.885,7.884-7.886h19.806c12.852,0,23.307-10.455,23.307-23.307c0-12.852-10.455-23.307-23.307-23.307H34.251    c-4.348,0-7.886-3.538-7.886-7.886C26.366,356.686,29.903,353.148,34.251,353.148z" fill="#383a3b"/>
	</g>
</g>
<g>
	<g>
		<path d="M169.324,65.255L44.508,53.131c-4.241-0.41-8.009,2.692-8.42,6.93c-0.412,4.238,2.691,8.008,6.928,8.419l124.818,12.125    c0.254,0.025,7.715,0,8.42-6.93C176.686,69.438,173.563,65.666,169.324,65.255z" fill="#383a3b"/>
	</g>
</g>
<g>
	<g>
		<path d="M410.345,459.209h-73.797l-22.026-304.653l111.27,7.549c0.178,0.012,0.355,0.018,0.531,0.018    c4.02,0,7.409-3.118,7.685-7.19c0.289-4.249-2.922-7.927-7.171-8.216l-112.903-7.659v-36.852l112.902-7.659    c4.249-0.288,7.459-3.966,7.171-8.216c-0.288-4.249-3.978-7.458-8.215-7.171l-106.233,7.207c-0.199-3.522-2.752-6.414-6.118-7.11    c-1.363-29.965-24.232-54.305-53.534-57.984V7.711c0-4.258-3.451-7.711-7.711-7.711s-7.711,3.452-7.711,7.711v13.563    c-29.302,3.68-52.171,28.02-53.534,57.985c-3.365,0.697-5.919,3.588-6.117,7.11L78.598,79.162    c-4.264-0.286-7.927,2.923-8.216,7.171c-0.288,4.249,2.923,7.927,7.171,8.216l112.903,7.659v36.851l-43.641,2.961    c-4.248,0.289-7.459,3.966-7.171,8.216c0.277,4.071,3.664,7.19,7.686,7.19c0.175,0,0.352-0.006,0.529-0.019l42.007-2.85    l-22.028,304.652H94.041c-14.554,0-26.395,11.841-26.395,26.395s11.841,26.395,26.395,26.395h316.304    c14.554,0,26.396-11.841,26.396-26.395S424.9,459.209,410.345,459.209z M311.574,327.639h-35.898    c3.313-2.583,5.454-6.599,5.454-11.116v-9.044c0-10.277-5.39-19.314-13.488-24.449h40.706L311.574,327.639z M268.617,102.296    h29.894v36.676h-17.38v-12.871C281.13,116.241,276.17,107.522,268.617,102.296z M252.194,36.196    c23.879,0,43.557,18.33,45.701,41.659l-0.8,1.242h-90.11l-0.523-0.897C208.442,54.707,228.197,36.196,252.194,36.196z     M265.709,126.101v12.871h-27.029v-12.871h0c0-7.452,6.062-13.515,13.515-13.515S265.709,118.648,265.709,126.101z     M205.877,138.971v-36.675h29.894c-7.553,5.227-12.513,13.945-12.513,23.805v12.871h-17.38V138.971z M205.339,154.393h93.709    l3.164,43.752H202.177L205.339,154.393z M201.061,213.566h102.265l3.908,54.042H197.154L201.061,213.566z M265.709,307.478v7.725    h-27.029v-7.725c0-7.452,6.062-13.515,13.515-13.515S265.709,300.026,265.709,307.478z M196.038,283.03h40.706    c-8.096,5.134-13.487,14.172-13.487,24.449v9.044c0,4.517,2.142,8.532,5.454,11.116h-35.899L196.038,283.03z M191.698,343.061    h120.991l3.908,54.042H187.79L191.698,343.061z M186.676,412.524h131.036l3.375,46.685H183.301L186.676,412.524z M410.345,496.578    H94.041c-6.05,0-10.973-4.923-10.973-10.973s4.923-10.973,10.973-10.973h235.316c0.003,0,0.007,0,0.01,0c0.004,0,0.009,0,0.013,0    h80.964c6.051,0,10.974,4.923,10.974,10.973S416.397,496.578,410.345,496.578z" fill="#383a3b"/>
	</g>
</g>
<g>
</g>
<g>
</g>
<g>
</g>
<g>
</g>
<g>
</g>
<g>
</g>
<g>
</g>
<g>
</g>
<g>
</g>
<g>
</g>
<g>
</g>
<g>
</g>
<g>
</g>
<g>
</g>
<g>
</g>
</svg>
