<?xml version="1.0" encoding="iso-8859-1"?>
<!-- Generator: Adobe Illustrator 19.0.0, SVG Export Plug-In . SVG Version: 6.00 Build 0)  -->
<svg xmlns="http://www.w3.org/2000/svg" xmlns:xlink="http://www.w3.org/1999/xlink" version="1.1" id="Layer_1" x="0px" y="0px" viewBox="0 0 511.999 511.999" style="enable-background:new 0 0 511.999 511.999;" xml:space="preserve" width="512px" height="512px">
<g>
	<g>
		<path d="M194.265,50.815c-4.168-0.951-8.319,1.662-9.267,5.831c-0.455,2.001-0.83,4.044-1.114,6.078    c-0.589,4.235,2.365,8.147,6.599,8.738c0.362,0.051,7.378,1.363,8.737-6.598c0.271-1.592,0.517-3.208,0.875-4.782    C201.045,55.912,198.435,51.764,194.265,50.815z" fill="#383a3b"/>
	</g>
</g>
<g>
	<g>
		<path d="M493.292,280.619l-29.16-50.507c-2.973-5.148-8.513-8.346-14.457-8.346c-5.945,0-11.485,3.199-14.457,8.347l-29.428,50.97    c-0.06,0.103-0.117,0.206-0.171,0.312c-1.42,2.745-5.743,11.097-1.516,18.045c4.066,6.683,12.53,6.683,16.143,6.683h7.304    c-29.336,51.041-79.558,86.235-137.536,96.213v-36.056c0-4.276-3.466-7.742-7.742-7.742c-4.276,0-7.742,3.466-7.742,7.742v45.037    c0,2.222,0.956,4.339,2.624,5.809c1.667,1.469,3.885,2.152,6.091,1.871c71.003-8.999,132.365-52.808,164.147-117.189    c1.184-2.4,1.046-5.241-0.367-7.514c-1.413-2.273-3.899-3.655-6.575-3.655c0,0-21.547-0.019-22.05-0.047    c0.215-0.531,30.227-52.737,30.227-52.737c0.43-0.746,1.664-0.745,2.094,0c0,0,29.984,52.126,30.175,52.659    c-0.452,0.072-20.482,0.126-20.482,0.126c-3.96,0-7.282,2.988-7.699,6.925c-10.678,100.645-95.162,176.542-196.52,176.542    c-6.547,0-13.022-0.325-19.416-0.949c-11.323-14.452-23.192-34.358-27.084-57.552c6.664,1.479,13.431,2.655,20.288,3.497    c2.202,0.269,4.413-0.417,6.074-1.887c1.661-1.47,2.612-3.581,2.612-5.799l-0.03-224.686h35.892v156.153    c0,4.276,3.466,7.742,7.742,7.742c4.276,0,7.742-3.466,7.742-7.742v-64.151c30.133-30.563,44.76-62.14,43.493-94.15    c-0.112-2.812-0.348-5.57-0.687-8.28c4.01-4.896,6.422-11.151,6.422-17.959v-4.98c0-15.279-12.137-27.773-27.275-28.359    c-0.732-1.034-1.47-2.047-2.212-3.04c12.043-13.159,19.082-30.549,19.082-49.14C328.838,32.669,296.169,0,256.013,0    c-25.332,0-48.467,12.886-61.887,34.469c-2.258,3.631-1.145,8.406,2.487,10.663c3.631,2.259,8.405,1.144,10.663-2.487    c10.574-17.009,28.794-27.162,48.737-27.162c31.618,0,57.341,25.723,57.341,57.341c0,13.894-4.996,26.938-13.617,37.09    c-5.639-6.128-10.958-10.953-15.003-14.337c4.967-6.258,7.945-14.162,7.945-22.753c0-20.219-16.449-36.668-36.668-36.668    c-20.219,0-36.668,16.449-36.668,36.668c0,20.218,16.449,36.667,36.668,36.667c5.915,0,11.502-1.416,16.455-3.914    c3.636,2.919,9.43,7.927,15.686,14.72c-2.614,1.768-5.394,3.336-8.326,4.679h-47.723c-0.167-0.095-0.334-0.191-0.511-0.275    c-16.664-7.879-28.61-23.348-31.959-41.376c-0.78-4.203-4.819-6.979-9.026-6.198c-4.203,0.78-6.979,4.822-6.198,9.026    c2.77,14.911,10.166,28.438,20.824,38.823h-4.065c-15.653,0-28.387,12.734-28.387,28.387v4.98    c0,15.653,12.734,28.387,28.387,28.387h21.987l0.019,134.587c-18.87,23.542-28.987,48.161-30.166,73.59    c-44.892-15.086-83.126-45.962-107.43-87.532h6.568c10.007,0,14.216-4.699,15.835-7.5c1.99-3.444,3.317-9.363-1.663-18.003    l-29.16-50.507c-2.973-5.148-8.513-8.346-14.457-8.346c-5.945,0-11.485,3.199-14.457,8.347L18.797,282.37    c-3.999,7.014-4.53,13.051-1.577,17.942c2.882,4.774,8.623,7.283,16.174,7.062h11.92c7.139,49.069,31.253,94.15,68.385,127.566    c32.255,29.026,72.277,47.299,114.851,52.845c11.562,13.724,21.708,21.8,22.688,22.567c1.416,1.109,3.097,1.646,4.765,1.646    c2.296,0,4.568-1.018,6.096-2.964c2.638-3.361,2.051-8.226-1.307-10.868c-0.139-0.109-3.953-3.158-9.461-8.635    c1.62,0.037,3.241,0.056,4.865,0.056c52.959,0,103.731-19.555,142.963-55.064c37.213-33.682,61.226-79.059,68.106-128.404h11.837    c0.004,0,0.01,0,0.018,0c9.876,0,14.085-4.692,15.715-7.488C496.839,295.196,498.203,289.289,493.292,280.619z M256.013,94.008    c-11.681,0.001-21.184-9.502-21.184-21.183s9.503-21.184,21.184-21.184s21.184,9.503,21.184,21.184    C277.197,84.505,267.694,94.008,256.013,94.008z M290.017,255.766v-69.036h20.84c2.486,0,4.897-0.323,7.196-0.926    C318.798,209.114,309.389,232.537,290.017,255.766z M201.169,171.246c-7.115,0-12.903-5.789-12.903-12.903v-4.98    c0-7.115,5.788-12.903,12.903-12.903h102.38c5.363,8.694,9.947,18.67,12.469,29.701c-1.582,0.694-3.326,1.085-5.161,1.085H201.169    z M223.178,348.451l0.007,54.021c-4.991-0.838-9.921-1.876-14.79-3.081C208.502,382.107,213.442,365.09,223.178,348.451z     M59.815,298.768c-0.44-3.916-3.752-6.878-7.693-6.878c0,0-20.326,0.004-20.79-0.038c0.202-0.475,30.323-52.746,30.323-52.746    c0.43-0.747,1.664-0.745,2.094,0c0,0,30.01,52.131,30.212,52.663c-0.47,0.07-21.388,0.122-21.388,0.122    c-2.686,0-5.18,1.391-6.589,3.678c-1.409,2.286-1.535,5.14-0.329,7.539c26.443,52.657,72.775,91.335,127.833,108.208    c2.351,22.75,11.438,42.656,21.743,58.541C133.38,452.638,69.477,384.811,59.815,298.768z" fill="#383a3b"/>
	</g>
</g>
<g>
	<g>
		<path d="M356.837,419.862c-1.889-3.836-6.53-5.414-10.366-3.524c-16.892,8.32-35.829,14.503-56.285,18.377    c-4.201,0.796-6.963,4.846-6.167,9.048c0.704,3.714,3.952,6.303,7.598,6.303c0.477,0,43.549-10.899,61.695-19.838    C357.149,428.338,358.727,423.698,356.837,419.862z" fill="#383a3b"/>
	</g>
</g>
<g>
	<g>
		<path d="M387.783,398.654c-2.637-3.365-7.503-3.956-10.869-1.319c-2.961,2.319-6.075,4.586-9.256,6.738    c-3.543,2.395-4.566,7.272-2.078,10.75c3.981,5.565,9.421,2.976,10.75,2.077c3.481-2.354,6.889-4.835,10.134-7.377    C389.829,406.886,390.42,402.02,387.783,398.654z" fill="#383a3b"/>
	</g>
</g>
<g>
</g>
<g>
</g>
<g>
</g>
<g>
</g>
<g>
</g>
<g>
</g>
<g>
</g>
<g>
</g>
<g>
</g>
<g>
</g>
<g>
</g>
<g>
</g>
<g>
</g>
<g>
</g>
<g>
</g>
</svg>
