<?xml version="1.0" encoding="iso-8859-1"?>
<!-- Generator: Adobe Illustrator 19.0.0, SVG Export Plug-In . SVG Version: 6.00 Build 0)  -->
<svg xmlns="http://www.w3.org/2000/svg" xmlns:xlink="http://www.w3.org/1999/xlink" version="1.1" id="Layer_1" x="0px" y="0px" viewBox="0 0 512.001 512.001" style="enable-background:new 0 0 512.001 512.001;" xml:space="preserve" width="512px" height="512px">
<g>
	<g>
		<g>
			<path d="M148.068,191.809c-0.018,0-0.037,0-0.057,0c-23.199,0.13-41.174,6.515-53.434,18.981     c-0.861,0.878-1.701,1.777-2.496,2.67c-3.668,4.128-3.297,10.449,0.832,14.118c1.904,1.693,4.277,2.525,6.639,2.525     c2.758,0,5.504-1.134,7.479-3.357c0.576-0.647,1.188-1.301,1.813-1.939c8.385-8.526,21.6-12.9,39.279-12.999     c5.523-0.031,9.977-4.533,9.945-10.056C158.037,196.249,153.566,191.809,148.068,191.809z" fill="#383a3b"/>
			<path d="M502.001,165.667h-43.758c-10.797,0-21.035,4.341-29.35,12.213c-8.315-7.872-18.553-12.213-29.35-12.213h-43.758     c-5.524,0-10,4.477-10,10c0,32.581,21.596,59.087,48.139,59.087h4.094c-3.096,26.768-19.371,29.147-38.627,29.147     c-21.33,0-34.992-14.938-53.902-35.614c-20.273-22.165-45.502-49.75-89.469-64.736c-6.496-2.213-14.23-4.525-22.852-6.506     c3.359-25.667,15.275-49.361,34.094-67.446c3.98-3.827,4.107-10.158,0.279-14.14c-3.828-3.981-10.156-4.107-14.139-0.28     c-15.994,15.372-27.744,34.194-34.518,54.846c-8.924-34.413-31.322-64.538-62.809-82.714c-4.783-2.762-10.9-1.122-13.66,3.661     c-2.762,4.783-1.121,10.899,3.662,13.66c31.963,18.452,52.938,51.37,56.543,87.699c-7.684-0.582-15.664-0.713-23.793-0.195     c-30.213,1.927-54.695,12.224-72.766,30.604C41.222,208,27.542,246.224,27.542,290.371v36.041     c-4.4-0.672-8.664-2.143-12.541-4.381c-4.785-2.762-10.898-1.122-13.66,3.661s-1.121,10.899,3.66,13.66     c8.484,4.897,18.145,7.486,27.939,7.486c1.84,0,3.666-0.095,5.477-0.274c0.109-0.009,0.219-0.021,0.328-0.035     c12.898-1.357,24.898-7.185,33.928-16.296c10.371,10.466,24.664,16.607,39.734,16.607c15.068,0,29.361-6.141,39.732-16.605     c10.371,10.465,24.664,16.605,39.734,16.605s29.361-6.141,39.732-16.604c10.373,10.465,24.664,16.604,39.736,16.604     c15.066,0,29.357-6.139,39.729-16.602c10.371,10.464,24.664,16.604,39.734,16.604s29.361-6.139,39.732-16.604     c10.371,10.465,24.664,16.605,39.734,16.605c17.863,0,34.783-8.639,45.264-23.108c3.238-4.473,2.238-10.725-2.234-13.964     c-4.471-3.238-10.725-2.24-13.965,2.234c-6.729,9.292-17.594,14.839-29.064,14.839c-1.074,0-2.141-0.066-3.201-0.162     c7.957-7.617,14.504-17.258,19.559-28.834c7.395-16.939,11.568-38.127,12.436-63.093h4.797c26.545,0,48.139-26.506,48.139-59.087     C512.001,170.144,507.525,165.667,502.001,165.667z M463.863,214.754h-14.627c-5.523,0-10,4.477-10,10     c0,46.333-11.318,78.31-32.807,92.993c-2.83-2.513-5.287-5.482-7.229-8.845c-1.787-3.094-5.088-5-8.66-5     c-3.572,0-6.875,1.906-8.66,5c-6.389,11.065-18.295,17.939-31.074,17.939s-24.686-6.874-31.074-17.939     c-1.785-3.094-5.086-5-8.66-5c-3.572,0-6.873,1.906-8.66,4.999c-6.389,11.065-18.293,17.938-31.068,17.938     c-12.779,0-24.688-6.874-31.076-17.94c-1.787-3.094-5.088-4.999-8.662-4.999c-3.572,0-6.873,1.906-8.658,5     c-6.389,11.065-18.295,17.939-31.072,17.939c-12.779,0-24.686-6.874-31.072-17.941c-1.787-3.094-5.088-5.001-8.662-5.001     c-3.572,0-6.873,1.906-8.66,5c-6.389,11.067-18.295,17.941-31.072,17.941c-12.777,0-24.684-6.875-31.074-17.942     c-1.787-3.093-5.088-4.999-8.66-4.999c-3.572,0-6.875,1.906-8.66,5c-3.836,6.642-9.666,11.757-16.471,14.799v-33.325     c0-38.868,11.643-72.111,32.781-93.608c39.855-40.536,109.002-21.179,129.244-14.281c39.117,13.334,61.455,37.756,81.164,59.304     c19.809,21.658,38.52,42.116,68.66,42.116c16.18,0,59.158,0,59.158-59.147c0-5.523-4.478-10-10-10h-14.625     c-12.775,0-23.891-12.558-27.164-29.087h32.783c7.883,0,15.516,4.83,20.945,13.251c1.842,2.856,5.006,4.581,8.404,4.581     s6.564-1.726,8.406-4.581c5.428-8.421,13.063-13.251,20.943-13.251h32.783C487.753,202.196,476.638,214.754,463.863,214.754z" fill="#383a3b"/>
			<path d="M193.402,266.188c-5.51,0-10.002,4.492-10.002,10.002c0,5.507,4.492,9.999,10.002,9.999c5.508,0,10-4.492,10-9.999     C203.402,270.681,198.91,266.188,193.402,266.188z" fill="#383a3b"/>
			<path d="M244.115,74.491c1.725,0,3.473-0.447,5.063-1.383c4.709-2.629,6.496-8.547,3.982-13.358     c-2.559-4.895-8.598-6.792-13.494-4.233c-0.277,0.145-0.549,0.3-0.813,0.463c-4.701,2.901-6.158,9.062-3.258,13.762     C237.486,72.805,240.761,74.491,244.115,74.491z" fill="#383a3b"/>
			<path d="M476.152,280.963c-5.521,0-10,4.477-10,10v0.14c0,5.523,4.479,10,10,10c5.523,0,10-4.477,10-10v-0.14     C486.152,285.44,481.675,280.963,476.152,280.963z" fill="#383a3b"/>
			<path d="M200.39,378.904c2.762-4.783,1.123-10.899-3.658-13.661c-4.785-2.764-10.9-1.123-13.662,3.659     c-6.391,11.067-18.297,17.942-31.074,17.942c-12.777,0-24.684-6.875-31.072-17.941c-1.787-3.094-5.088-5-8.66-5     c-3.572,0-6.875,1.906-8.66,4.999c-6.391,11.065-18.297,17.939-31.072,17.939c-12.779,0-24.686-6.875-31.074-17.94     c-2.76-4.782-8.873-6.424-13.66-3.661c-4.781,2.761-6.422,8.877-3.66,13.66c9.949,17.235,28.492,27.941,48.395,27.941     c15.068,0,29.359-6.14,39.73-16.604c10.371,10.465,24.664,16.606,39.734,16.606C171.894,406.845,190.437,396.139,200.39,378.904z     " fill="#383a3b"/>
			<path d="M436.288,365.244c-4.781-2.763-10.898-1.124-13.66,3.657c-6.393,11.068-18.301,17.943-31.076,17.943     c-12.777,0-24.684-6.875-31.072-17.941c-1.787-3.094-5.088-5-8.66-5c-3.572,0-6.875,1.906-8.66,4.999     c-6.391,11.065-18.297,17.939-31.074,17.939c-12.777,0-24.684-6.875-31.074-17.941c-2.76-4.782-8.877-6.421-13.66-3.66     c-4.783,2.761-6.422,8.877-3.66,13.66c9.951,17.234,28.494,27.941,48.395,27.941c15.068,0,29.361-6.14,39.732-16.604     c10.373,10.467,24.664,16.606,39.734,16.606c19.896,0,38.439-10.706,48.395-27.939     C442.708,374.123,441.072,368.006,436.288,365.244z" fill="#383a3b"/>
			<path d="M317.882,424.433c-4.783-2.762-10.898-1.122-13.66,3.66c-6.389,11.065-18.295,17.939-31.072,17.939     c-12.777,0-24.684-6.874-31.072-17.94c-1.787-3.094-5.09-5-8.662-4.999c-3.572,0.001-6.873,1.907-8.66,5.001     c-6.385,11.064-18.291,17.938-31.07,17.938s-24.686-6.875-31.074-17.94c-2.76-4.782-8.875-6.423-13.658-3.661     c-4.783,2.761-6.424,8.877-3.662,13.66c9.949,17.235,28.492,27.941,48.395,27.941c15.072,0,29.363-6.139,39.732-16.604     c10.373,10.464,24.664,16.604,39.732,16.604c19.9,0,38.443-10.706,48.393-27.939C324.304,433.31,322.665,427.194,317.882,424.433     z" fill="#383a3b"/>
		</g>
	</g>
</g>
<g>
</g>
<g>
</g>
<g>
</g>
<g>
</g>
<g>
</g>
<g>
</g>
<g>
</g>
<g>
</g>
<g>
</g>
<g>
</g>
<g>
</g>
<g>
</g>
<g>
</g>
<g>
</g>
<g>
</g>
</svg>
